<?xml version="1.0" encoding="utf-8"?>
<!-- Generator: Adobe Illustrator 24.0.2, SVG Export Plug-In . SVG Version: 6.00 Build 0)  -->
<svg version="1.1" id="Calque_1" xmlns="http://www.w3.org/2000/svg" xmlns:xlink="http://www.w3.org/1999/xlink" x="0px" y="0px"
	 viewBox="0 0 1980 1080" style="enable-background:new 0 0 1980 1080;" xml:space="preserve">
<style type="text/css">
	.st0{fill:none;stroke:#232323;stroke-width:15;}
	.st1{fill:#232323;}
</style>
<circle class="st0" cx="990.3" cy="539.5" r="408.5"/>
<path class="st1" d="M1036.8,448.5c0,92.8-24.1,92.8-83.6,92.8h-16.7V357.5h16.7C1008.9,357.5,1036.8,353.8,1036.8,448.5z
	 M1192.7,708.5c-13-1.9-46.4-16.7-55.7-55.7c-24.1-92.8-61.3-111.4-107.7-109.6c55.7-3.7,111.4-24.1,111.4-94.7
	c0-87.3-83.6-98.4-187.5-98.4H815.8v7.4c22.3,0,31.6,14.9,31.6,46.4v252.5c0,44.6-9.3,53.8-31.6,53.8v5.6h154.1v-7.4
	c-22.3,0-31.6-11.1-31.6-53.8V548.8h24.1c0,0,55.7-1.9,66.8,52c24.1,104,24.1,117,89.1,117h76.1v-9.3H1192.7z"/>
</svg>
